<mxfile host="app.diagrams.net" modified="2020-04-17T12:03:03.036Z" agent="5.0 (Macintosh)" etag="8ujv6eN5F15CU212gJyX" version="12.9.14" type="github">
  <diagram id="C5RBs43oDa-KdzZeNtuy" name="Page-1">
    <mxGraphModel dx="2985" dy="3115" grid="1" gridSize="10" guides="1" tooltips="1" connect="1" arrows="1" fold="1" page="0" pageScale="1" pageWidth="827" pageHeight="1169" math="0" shadow="0">
      <root>
        <mxCell id="WIyWlLk6GJQsqaUBKTNV-0" />
        <mxCell id="WIyWlLk6GJQsqaUBKTNV-1" parent="WIyWlLk6GJQsqaUBKTNV-0" />
        <mxCell id="nqtLHEjrHN-lKsNGVXzO-3" value="" style="edgeStyle=orthogonalEdgeStyle;rounded=0;orthogonalLoop=1;jettySize=auto;html=1;" parent="WIyWlLk6GJQsqaUBKTNV-1" edge="1">
          <mxGeometry relative="1" as="geometry">
            <mxPoint x="-170" y="-130" as="sourcePoint" />
            <mxPoint x="-170" y="-92" as="targetPoint" />
          </mxGeometry>
        </mxCell>
        <mxCell id="nqtLHEjrHN-lKsNGVXzO-8" value="" style="edgeStyle=orthogonalEdgeStyle;rounded=0;orthogonalLoop=1;jettySize=auto;html=1;" parent="WIyWlLk6GJQsqaUBKTNV-1" source="nqtLHEjrHN-lKsNGVXzO-5" target="nqtLHEjrHN-lKsNGVXzO-7" edge="1">
          <mxGeometry relative="1" as="geometry" />
        </mxCell>
        <mxCell id="nqtLHEjrHN-lKsNGVXzO-5" value="INITA" style="shape=process;whiteSpace=wrap;html=1;backgroundOutline=1;" parent="WIyWlLk6GJQsqaUBKTNV-1" vertex="1">
          <mxGeometry x="-230" y="-90" width="120" height="60" as="geometry" />
        </mxCell>
        <mxCell id="nqtLHEjrHN-lKsNGVXzO-6" value="START" style="ellipse;whiteSpace=wrap;html=1;" parent="WIyWlLk6GJQsqaUBKTNV-1" vertex="1">
          <mxGeometry x="-230" y="-170" width="120" height="40" as="geometry" />
        </mxCell>
        <mxCell id="nqtLHEjrHN-lKsNGVXzO-10" value="" style="edgeStyle=orthogonalEdgeStyle;rounded=0;orthogonalLoop=1;jettySize=auto;html=1;" parent="WIyWlLk6GJQsqaUBKTNV-1" source="nqtLHEjrHN-lKsNGVXzO-7" target="nqtLHEjrHN-lKsNGVXzO-9" edge="1">
          <mxGeometry relative="1" as="geometry" />
        </mxCell>
        <mxCell id="nqtLHEjrHN-lKsNGVXzO-7" value="DEMO" style="shape=process;whiteSpace=wrap;html=1;backgroundOutline=1;" parent="WIyWlLk6GJQsqaUBKTNV-1" vertex="1">
          <mxGeometry x="-230" width="120" height="60" as="geometry" />
        </mxCell>
        <mxCell id="nqtLHEjrHN-lKsNGVXzO-12" value="" style="edgeStyle=orthogonalEdgeStyle;rounded=0;orthogonalLoop=1;jettySize=auto;html=1;" parent="WIyWlLk6GJQsqaUBKTNV-1" source="nqtLHEjrHN-lKsNGVXzO-9" target="nqtLHEjrHN-lKsNGVXzO-11" edge="1">
          <mxGeometry relative="1" as="geometry" />
        </mxCell>
        <mxCell id="nqtLHEjrHN-lKsNGVXzO-9" value="INITC" style="shape=process;whiteSpace=wrap;html=1;backgroundOutline=1;" parent="WIyWlLk6GJQsqaUBKTNV-1" vertex="1">
          <mxGeometry x="-230" y="90" width="120" height="60" as="geometry" />
        </mxCell>
        <mxCell id="nqtLHEjrHN-lKsNGVXzO-14" value="" style="edgeStyle=orthogonalEdgeStyle;rounded=0;orthogonalLoop=1;jettySize=auto;html=1;" parent="WIyWlLk6GJQsqaUBKTNV-1" source="nqtLHEjrHN-lKsNGVXzO-11" target="nqtLHEjrHN-lKsNGVXzO-13" edge="1">
          <mxGeometry relative="1" as="geometry" />
        </mxCell>
        <mxCell id="nqtLHEjrHN-lKsNGVXzO-11" value="INITD" style="shape=process;whiteSpace=wrap;html=1;backgroundOutline=1;" parent="WIyWlLk6GJQsqaUBKTNV-1" vertex="1">
          <mxGeometry x="-230" y="180" width="120" height="60" as="geometry" />
        </mxCell>
        <mxCell id="nqtLHEjrHN-lKsNGVXzO-16" value="" style="edgeStyle=orthogonalEdgeStyle;rounded=0;orthogonalLoop=1;jettySize=auto;html=1;" parent="WIyWlLk6GJQsqaUBKTNV-1" source="nqtLHEjrHN-lKsNGVXzO-13" target="nqtLHEjrHN-lKsNGVXzO-15" edge="1">
          <mxGeometry relative="1" as="geometry" />
        </mxCell>
        <mxCell id="nqtLHEjrHN-lKsNGVXzO-13" value="MYCAR_MAIN" style="shape=process;whiteSpace=wrap;html=1;backgroundOutline=1;" parent="WIyWlLk6GJQsqaUBKTNV-1" vertex="1">
          <mxGeometry x="-230" y="270" width="120" height="60" as="geometry" />
        </mxCell>
        <mxCell id="nqtLHEjrHN-lKsNGVXzO-20" value="" style="edgeStyle=orthogonalEdgeStyle;rounded=0;orthogonalLoop=1;jettySize=auto;html=1;" parent="WIyWlLk6GJQsqaUBKTNV-1" source="nqtLHEjrHN-lKsNGVXzO-15" target="nqtLHEjrHN-lKsNGVXzO-17" edge="1">
          <mxGeometry relative="1" as="geometry" />
        </mxCell>
        <mxCell id="nqtLHEjrHN-lKsNGVXzO-15" value="REDCAR" style="shape=process;whiteSpace=wrap;html=1;backgroundOutline=1;" parent="WIyWlLk6GJQsqaUBKTNV-1" vertex="1">
          <mxGeometry x="-230" y="360" width="120" height="60" as="geometry" />
        </mxCell>
        <mxCell id="nqtLHEjrHN-lKsNGVXzO-22" value="" style="edgeStyle=orthogonalEdgeStyle;rounded=0;orthogonalLoop=1;jettySize=auto;html=1;" parent="WIyWlLk6GJQsqaUBKTNV-1" source="nqtLHEjrHN-lKsNGVXzO-17" target="nqtLHEjrHN-lKsNGVXzO-21" edge="1">
          <mxGeometry relative="1" as="geometry" />
        </mxCell>
        <mxCell id="nqtLHEjrHN-lKsNGVXzO-17" value="SMOKE" style="shape=process;whiteSpace=wrap;html=1;backgroundOutline=1;" parent="WIyWlLk6GJQsqaUBKTNV-1" vertex="1">
          <mxGeometry x="-230" y="450" width="120" height="60" as="geometry" />
        </mxCell>
        <mxCell id="nqtLHEjrHN-lKsNGVXzO-26" value="" style="edgeStyle=orthogonalEdgeStyle;rounded=0;orthogonalLoop=1;jettySize=auto;html=1;" parent="WIyWlLk6GJQsqaUBKTNV-1" source="nqtLHEjrHN-lKsNGVXzO-21" target="nqtLHEjrHN-lKsNGVXzO-25" edge="1">
          <mxGeometry relative="1" as="geometry" />
        </mxCell>
        <mxCell id="nqtLHEjrHN-lKsNGVXzO-21" value="CHKPOINT" style="shape=process;whiteSpace=wrap;html=1;backgroundOutline=1;" parent="WIyWlLk6GJQsqaUBKTNV-1" vertex="1">
          <mxGeometry x="-230" y="540" width="120" height="60" as="geometry" />
        </mxCell>
        <mxCell id="nqtLHEjrHN-lKsNGVXzO-48" value="" style="edgeStyle=orthogonalEdgeStyle;rounded=0;orthogonalLoop=1;jettySize=auto;html=1;entryX=1;entryY=0.5;entryDx=0;entryDy=0;" parent="WIyWlLk6GJQsqaUBKTNV-1" source="nqtLHEjrHN-lKsNGVXzO-25" target="nqtLHEjrHN-lKsNGVXzO-13" edge="1">
          <mxGeometry relative="1" as="geometry">
            <mxPoint x="-40" y="300" as="targetPoint" />
            <Array as="points">
              <mxPoint x="-60" y="660" />
              <mxPoint x="-60" y="300" />
            </Array>
          </mxGeometry>
        </mxCell>
        <mxCell id="nqtLHEjrHN-lKsNGVXzO-25" value="BEEPSND" style="shape=process;whiteSpace=wrap;html=1;backgroundOutline=1;" parent="WIyWlLk6GJQsqaUBKTNV-1" vertex="1">
          <mxGeometry x="-230" y="630" width="120" height="60" as="geometry" />
        </mxCell>
        <mxCell id="nqtLHEjrHN-lKsNGVXzO-42" value="" style="edgeStyle=orthogonalEdgeStyle;rounded=0;orthogonalLoop=1;jettySize=auto;html=1;" parent="WIyWlLk6GJQsqaUBKTNV-1" source="nqtLHEjrHN-lKsNGVXzO-33" target="nqtLHEjrHN-lKsNGVXzO-39" edge="1">
          <mxGeometry relative="1" as="geometry" />
        </mxCell>
        <mxCell id="nqtLHEjrHN-lKsNGVXzO-33" value="MYCAR_MAIN" style="ellipse;whiteSpace=wrap;html=1;" parent="WIyWlLk6GJQsqaUBKTNV-1" vertex="1">
          <mxGeometry x="270" y="-170" width="120" height="40" as="geometry" />
        </mxCell>
        <mxCell id="nqtLHEjrHN-lKsNGVXzO-41" value="" style="edgeStyle=orthogonalEdgeStyle;rounded=0;orthogonalLoop=1;jettySize=auto;html=1;" parent="WIyWlLk6GJQsqaUBKTNV-1" source="nqtLHEjrHN-lKsNGVXzO-39" edge="1">
          <mxGeometry relative="1" as="geometry">
            <mxPoint x="329.9999999999998" as="targetPoint" />
          </mxGeometry>
        </mxCell>
        <mxCell id="nqtLHEjrHN-lKsNGVXzO-39" value="WAIT" style="rounded=0;whiteSpace=wrap;html=1;" parent="WIyWlLk6GJQsqaUBKTNV-1" vertex="1">
          <mxGeometry x="270" y="-90" width="120" height="60" as="geometry" />
        </mxCell>
        <mxCell id="nqtLHEjrHN-lKsNGVXzO-46" value="NO" style="edgeStyle=orthogonalEdgeStyle;rounded=0;orthogonalLoop=1;jettySize=auto;html=1;" parent="WIyWlLk6GJQsqaUBKTNV-1" target="nqtLHEjrHN-lKsNGVXzO-43" edge="1">
          <mxGeometry relative="1" as="geometry">
            <mxPoint x="329.9999999999998" y="60" as="sourcePoint" />
          </mxGeometry>
        </mxCell>
        <mxCell id="nqtLHEjrHN-lKsNGVXzO-45" value="NO" style="edgeStyle=orthogonalEdgeStyle;rounded=0;orthogonalLoop=1;jettySize=auto;html=1;entryX=0.5;entryY=0;entryDx=0;entryDy=0;" parent="WIyWlLk6GJQsqaUBKTNV-1" source="nqtLHEjrHN-lKsNGVXzO-43" target="nqtLHEjrHN-lKsNGVXzO-52" edge="1">
          <mxGeometry relative="1" as="geometry">
            <mxPoint x="460" y="130" as="targetPoint" />
          </mxGeometry>
        </mxCell>
        <mxCell id="nqtLHEjrHN-lKsNGVXzO-50" value="YES" style="edgeStyle=orthogonalEdgeStyle;rounded=0;orthogonalLoop=1;jettySize=auto;html=1;" parent="WIyWlLk6GJQsqaUBKTNV-1" source="nqtLHEjrHN-lKsNGVXzO-43" edge="1">
          <mxGeometry relative="1" as="geometry">
            <mxPoint x="330" y="200" as="targetPoint" />
          </mxGeometry>
        </mxCell>
        <mxCell id="nqtLHEjrHN-lKsNGVXzO-43" value="タイミング" style="rhombus;whiteSpace=wrap;html=1;rounded=0;" parent="WIyWlLk6GJQsqaUBKTNV-1" vertex="1">
          <mxGeometry x="255" y="95" width="150" height="70" as="geometry" />
        </mxCell>
        <mxCell id="nqtLHEjrHN-lKsNGVXzO-54" value="" style="edgeStyle=orthogonalEdgeStyle;rounded=0;orthogonalLoop=1;jettySize=auto;html=1;" parent="WIyWlLk6GJQsqaUBKTNV-1" target="nqtLHEjrHN-lKsNGVXzO-51" edge="1">
          <mxGeometry relative="1" as="geometry">
            <mxPoint x="330" y="260" as="sourcePoint" />
          </mxGeometry>
        </mxCell>
        <mxCell id="nqtLHEjrHN-lKsNGVXzO-60" value="NO" style="edgeStyle=orthogonalEdgeStyle;rounded=0;orthogonalLoop=1;jettySize=auto;html=1;" parent="WIyWlLk6GJQsqaUBKTNV-1" source="nqtLHEjrHN-lKsNGVXzO-51" target="nqtLHEjrHN-lKsNGVXzO-59" edge="1">
          <mxGeometry relative="1" as="geometry" />
        </mxCell>
        <mxCell id="nqtLHEjrHN-lKsNGVXzO-94" value="YES" style="edgeStyle=orthogonalEdgeStyle;rounded=0;orthogonalLoop=1;jettySize=auto;html=1;" parent="WIyWlLk6GJQsqaUBKTNV-1" source="nqtLHEjrHN-lKsNGVXzO-51" target="nqtLHEjrHN-lKsNGVXzO-52" edge="1">
          <mxGeometry relative="1" as="geometry" />
        </mxCell>
        <mxCell id="nqtLHEjrHN-lKsNGVXzO-51" value="回転中" style="rhombus;whiteSpace=wrap;html=1;rounded=0;" parent="WIyWlLk6GJQsqaUBKTNV-1" vertex="1">
          <mxGeometry x="255" y="295" width="150" height="70" as="geometry" />
        </mxCell>
        <mxCell id="nqtLHEjrHN-lKsNGVXzO-52" value="REDCAR" style="ellipse;whiteSpace=wrap;html=1;rounded=0;" parent="WIyWlLk6GJQsqaUBKTNV-1" vertex="1">
          <mxGeometry x="460" y="310" width="120" height="40" as="geometry" />
        </mxCell>
        <mxCell id="nqtLHEjrHN-lKsNGVXzO-57" value="YES" style="edgeStyle=orthogonalEdgeStyle;rounded=0;orthogonalLoop=1;jettySize=auto;html=1;" parent="WIyWlLk6GJQsqaUBKTNV-1" source="nqtLHEjrHN-lKsNGVXzO-55" target="nqtLHEjrHN-lKsNGVXzO-56" edge="1">
          <mxGeometry relative="1" as="geometry" />
        </mxCell>
        <mxCell id="nqtLHEjrHN-lKsNGVXzO-55" value="STOP" style="rhombus;whiteSpace=wrap;html=1;rounded=0;gradientColor=none;" parent="WIyWlLk6GJQsqaUBKTNV-1" vertex="1">
          <mxGeometry x="255" y="-5" width="150" height="70" as="geometry" />
        </mxCell>
        <mxCell id="nqtLHEjrHN-lKsNGVXzO-56" value="DEMO" style="ellipse;whiteSpace=wrap;html=1;rounded=0;" parent="WIyWlLk6GJQsqaUBKTNV-1" vertex="1">
          <mxGeometry x="460" y="10" width="120" height="40" as="geometry" />
        </mxCell>
        <mxCell id="nqtLHEjrHN-lKsNGVXzO-62" value="NO" style="edgeStyle=orthogonalEdgeStyle;rounded=0;orthogonalLoop=1;jettySize=auto;html=1;" parent="WIyWlLk6GJQsqaUBKTNV-1" source="nqtLHEjrHN-lKsNGVXzO-59" target="nqtLHEjrHN-lKsNGVXzO-61" edge="1">
          <mxGeometry relative="1" as="geometry" />
        </mxCell>
        <mxCell id="nqtLHEjrHN-lKsNGVXzO-75" value="YES" style="edgeStyle=orthogonalEdgeStyle;rounded=0;orthogonalLoop=1;jettySize=auto;html=1;" parent="WIyWlLk6GJQsqaUBKTNV-1" source="nqtLHEjrHN-lKsNGVXzO-59" target="nqtLHEjrHN-lKsNGVXzO-74" edge="1">
          <mxGeometry relative="1" as="geometry" />
        </mxCell>
        <mxCell id="nqtLHEjrHN-lKsNGVXzO-59" value="(MWDXY)=0" style="rhombus;whiteSpace=wrap;html=1;rounded=0;" parent="WIyWlLk6GJQsqaUBKTNV-1" vertex="1">
          <mxGeometry x="255" y="400" width="150" height="70" as="geometry" />
        </mxCell>
        <mxCell id="nqtLHEjrHN-lKsNGVXzO-92" value="" style="edgeStyle=orthogonalEdgeStyle;rounded=0;orthogonalLoop=1;jettySize=auto;html=1;" parent="WIyWlLk6GJQsqaUBKTNV-1" source="nqtLHEjrHN-lKsNGVXzO-61" target="nqtLHEjrHN-lKsNGVXzO-87" edge="1">
          <mxGeometry relative="1" as="geometry" />
        </mxCell>
        <mxCell id="nqtLHEjrHN-lKsNGVXzO-61" value="マイカーの形をセットする" style="rounded=0;whiteSpace=wrap;html=1;" parent="WIyWlLk6GJQsqaUBKTNV-1" vertex="1">
          <mxGeometry x="270" y="500" width="120" height="60" as="geometry" />
        </mxCell>
        <mxCell id="nqtLHEjrHN-lKsNGVXzO-68" value="YES" style="edgeStyle=orthogonalEdgeStyle;rounded=0;orthogonalLoop=1;jettySize=auto;html=1;" parent="WIyWlLk6GJQsqaUBKTNV-1" source="nqtLHEjrHN-lKsNGVXzO-65" edge="1">
          <mxGeometry relative="1" as="geometry">
            <mxPoint x="329.9999999999998" y="780" as="targetPoint" />
          </mxGeometry>
        </mxCell>
        <mxCell id="nqtLHEjrHN-lKsNGVXzO-81" value="NO" style="edgeStyle=orthogonalEdgeStyle;rounded=0;orthogonalLoop=1;jettySize=auto;html=1;" parent="WIyWlLk6GJQsqaUBKTNV-1" source="nqtLHEjrHN-lKsNGVXzO-65" edge="1">
          <mxGeometry relative="1" as="geometry">
            <mxPoint x="320" y="950" as="targetPoint" />
            <Array as="points">
              <mxPoint x="200" y="715" />
              <mxPoint x="200" y="950" />
            </Array>
          </mxGeometry>
        </mxCell>
        <mxCell id="nqtLHEjrHN-lKsNGVXzO-65" value="(MDXY)=0" style="rhombus;whiteSpace=wrap;html=1;rounded=0;" parent="WIyWlLk6GJQsqaUBKTNV-1" vertex="1">
          <mxGeometry x="255" y="680" width="150" height="70" as="geometry" />
        </mxCell>
        <mxCell id="nqtLHEjrHN-lKsNGVXzO-71" value="" style="edgeStyle=orthogonalEdgeStyle;rounded=0;orthogonalLoop=1;jettySize=auto;html=1;" parent="WIyWlLk6GJQsqaUBKTNV-1" target="nqtLHEjrHN-lKsNGVXzO-70" edge="1">
          <mxGeometry relative="1" as="geometry">
            <mxPoint x="329.9999999999998" y="840" as="sourcePoint" />
          </mxGeometry>
        </mxCell>
        <mxCell id="nqtLHEjrHN-lKsNGVXzO-73" value="&lt;div&gt;YES&lt;/div&gt;" style="edgeStyle=orthogonalEdgeStyle;rounded=0;orthogonalLoop=1;jettySize=auto;html=1;" parent="WIyWlLk6GJQsqaUBKTNV-1" source="nqtLHEjrHN-lKsNGVXzO-70" target="nqtLHEjrHN-lKsNGVXzO-72" edge="1">
          <mxGeometry relative="1" as="geometry" />
        </mxCell>
        <mxCell id="nqtLHEjrHN-lKsNGVXzO-79" value="NO" style="edgeStyle=orthogonalEdgeStyle;rounded=0;orthogonalLoop=1;jettySize=auto;html=1;" parent="WIyWlLk6GJQsqaUBKTNV-1" source="nqtLHEjrHN-lKsNGVXzO-70" edge="1">
          <mxGeometry relative="1" as="geometry">
            <mxPoint x="329.9999999999998" y="970" as="targetPoint" />
          </mxGeometry>
        </mxCell>
        <mxCell id="nqtLHEjrHN-lKsNGVXzO-70" value="岩に衝突" style="rhombus;whiteSpace=wrap;html=1;rounded=0;" parent="WIyWlLk6GJQsqaUBKTNV-1" vertex="1">
          <mxGeometry x="255" y="870" width="150" height="70" as="geometry" />
        </mxCell>
        <mxCell id="nqtLHEjrHN-lKsNGVXzO-72" value="CRASH" style="ellipse;whiteSpace=wrap;html=1;rounded=0;" parent="WIyWlLk6GJQsqaUBKTNV-1" vertex="1">
          <mxGeometry x="460" y="885" width="120" height="40" as="geometry" />
        </mxCell>
        <mxCell id="nqtLHEjrHN-lKsNGVXzO-77" value="" style="edgeStyle=orthogonalEdgeStyle;rounded=0;orthogonalLoop=1;jettySize=auto;html=1;entryX=1;entryY=0.5;entryDx=0;entryDy=0;" parent="WIyWlLk6GJQsqaUBKTNV-1" source="nqtLHEjrHN-lKsNGVXzO-74" target="nqtLHEjrHN-lKsNGVXzO-87" edge="1">
          <mxGeometry relative="1" as="geometry">
            <mxPoint x="390.0000000000002" y="630" as="targetPoint" />
            <Array as="points">
              <mxPoint x="520" y="620" />
            </Array>
          </mxGeometry>
        </mxCell>
        <mxCell id="nqtLHEjrHN-lKsNGVXzO-74" value="移動方向決定" style="shape=process;whiteSpace=wrap;html=1;backgroundOutline=1;rounded=0;" parent="WIyWlLk6GJQsqaUBKTNV-1" vertex="1">
          <mxGeometry x="460" y="405" width="120" height="60" as="geometry" />
        </mxCell>
        <mxCell id="nqtLHEjrHN-lKsNGVXzO-84" value="NO" style="edgeStyle=orthogonalEdgeStyle;rounded=0;orthogonalLoop=1;jettySize=auto;html=1;" parent="WIyWlLk6GJQsqaUBKTNV-1" source="nqtLHEjrHN-lKsNGVXzO-82" target="nqtLHEjrHN-lKsNGVXzO-83" edge="1">
          <mxGeometry relative="1" as="geometry" />
        </mxCell>
        <mxCell id="nqtLHEjrHN-lKsNGVXzO-86" value="YES" style="edgeStyle=orthogonalEdgeStyle;rounded=0;orthogonalLoop=1;jettySize=auto;html=1;" parent="WIyWlLk6GJQsqaUBKTNV-1" source="nqtLHEjrHN-lKsNGVXzO-82" target="nqtLHEjrHN-lKsNGVXzO-85" edge="1">
          <mxGeometry relative="1" as="geometry" />
        </mxCell>
        <mxCell id="nqtLHEjrHN-lKsNGVXzO-82" value="(MWDXY)=0" style="rhombus;whiteSpace=wrap;html=1;rounded=0;" parent="WIyWlLk6GJQsqaUBKTNV-1" vertex="1">
          <mxGeometry x="255" y="970" width="150" height="70" as="geometry" />
        </mxCell>
        <mxCell id="nqtLHEjrHN-lKsNGVXzO-83" value="PSETMC" style="ellipse;whiteSpace=wrap;html=1;rounded=0;" parent="WIyWlLk6GJQsqaUBKTNV-1" vertex="1">
          <mxGeometry x="460" y="985" width="120" height="40" as="geometry" />
        </mxCell>
        <mxCell id="kZs2vMbf8O2eaN0qB7Vc-2" value="" style="edgeStyle=orthogonalEdgeStyle;rounded=0;orthogonalLoop=1;jettySize=auto;html=1;" edge="1" parent="WIyWlLk6GJQsqaUBKTNV-1" source="nqtLHEjrHN-lKsNGVXzO-85" target="kZs2vMbf8O2eaN0qB7Vc-1">
          <mxGeometry relative="1" as="geometry" />
        </mxCell>
        <mxCell id="nqtLHEjrHN-lKsNGVXzO-85" value="チェックポイント" style="shape=process;whiteSpace=wrap;html=1;backgroundOutline=1;rounded=0;" parent="WIyWlLk6GJQsqaUBKTNV-1" vertex="1">
          <mxGeometry x="270" y="1070" width="120" height="60" as="geometry" />
        </mxCell>
        <mxCell id="nqtLHEjrHN-lKsNGVXzO-91" value="" style="edgeStyle=orthogonalEdgeStyle;rounded=0;orthogonalLoop=1;jettySize=auto;html=1;" parent="WIyWlLk6GJQsqaUBKTNV-1" source="nqtLHEjrHN-lKsNGVXzO-87" target="nqtLHEjrHN-lKsNGVXzO-65" edge="1">
          <mxGeometry relative="1" as="geometry" />
        </mxCell>
        <mxCell id="nqtLHEjrHN-lKsNGVXzO-87" value="スクロール" style="shape=process;whiteSpace=wrap;html=1;backgroundOutline=1;rounded=0;" parent="WIyWlLk6GJQsqaUBKTNV-1" vertex="1">
          <mxGeometry x="270" y="590" width="120" height="60" as="geometry" />
        </mxCell>
        <mxCell id="nqtLHEjrHN-lKsNGVXzO-93" value="マップオブジェクト出力" style="shape=process;whiteSpace=wrap;html=1;backgroundOutline=1;rounded=0;" parent="WIyWlLk6GJQsqaUBKTNV-1" vertex="1">
          <mxGeometry x="270" y="780" width="120" height="60" as="geometry" />
        </mxCell>
        <mxCell id="kZs2vMbf8O2eaN0qB7Vc-4" value="" style="edgeStyle=orthogonalEdgeStyle;rounded=0;orthogonalLoop=1;jettySize=auto;html=1;" edge="1" parent="WIyWlLk6GJQsqaUBKTNV-1" source="kZs2vMbf8O2eaN0qB7Vc-1" target="kZs2vMbf8O2eaN0qB7Vc-3">
          <mxGeometry relative="1" as="geometry" />
        </mxCell>
        <mxCell id="kZs2vMbf8O2eaN0qB7Vc-1" value="&lt;div&gt;(MCXY)&lt;/div&gt;&lt;div&gt;(MCHR)更新&lt;br&gt;&lt;/div&gt;" style="rounded=0;whiteSpace=wrap;html=1;gradientColor=none;" vertex="1" parent="WIyWlLk6GJQsqaUBKTNV-1">
          <mxGeometry x="270" y="1160" width="120" height="60" as="geometry" />
        </mxCell>
        <mxCell id="kZs2vMbf8O2eaN0qB7Vc-7" value="" style="edgeStyle=orthogonalEdgeStyle;rounded=0;orthogonalLoop=1;jettySize=auto;html=1;" edge="1" parent="WIyWlLk6GJQsqaUBKTNV-1" source="kZs2vMbf8O2eaN0qB7Vc-3" target="kZs2vMbf8O2eaN0qB7Vc-6">
          <mxGeometry relative="1" as="geometry" />
        </mxCell>
        <mxCell id="kZs2vMbf8O2eaN0qB7Vc-3" value="煙幕発生" style="shape=process;whiteSpace=wrap;html=1;backgroundOutline=1;gradientColor=none;" vertex="1" parent="WIyWlLk6GJQsqaUBKTNV-1">
          <mxGeometry x="270" y="1250" width="120" height="60" as="geometry" />
        </mxCell>
        <mxCell id="kZs2vMbf8O2eaN0qB7Vc-9" value="" style="edgeStyle=orthogonalEdgeStyle;rounded=0;orthogonalLoop=1;jettySize=auto;html=1;" edge="1" parent="WIyWlLk6GJQsqaUBKTNV-1" source="kZs2vMbf8O2eaN0qB7Vc-6" target="kZs2vMbf8O2eaN0qB7Vc-8">
          <mxGeometry relative="1" as="geometry" />
        </mxCell>
        <mxCell id="kZs2vMbf8O2eaN0qB7Vc-6" value="マイカーのレーダー更新" style="shape=process;whiteSpace=wrap;html=1;backgroundOutline=1;gradientColor=none;" vertex="1" parent="WIyWlLk6GJQsqaUBKTNV-1">
          <mxGeometry x="270" y="1340" width="120" height="60" as="geometry" />
        </mxCell>
        <mxCell id="kZs2vMbf8O2eaN0qB7Vc-16" value="" style="edgeStyle=orthogonalEdgeStyle;rounded=0;orthogonalLoop=1;jettySize=auto;html=1;" edge="1" parent="WIyWlLk6GJQsqaUBKTNV-1" source="kZs2vMbf8O2eaN0qB7Vc-8">
          <mxGeometry relative="1" as="geometry">
            <mxPoint x="330" y="1520" as="targetPoint" />
          </mxGeometry>
        </mxCell>
        <mxCell id="kZs2vMbf8O2eaN0qB7Vc-8" value="&lt;div&gt;(MXY)&lt;/div&gt;&lt;div&gt;(MXY1)&lt;/div&gt;&lt;div&gt;(MDXY)更新&lt;/div&gt;" style="rounded=0;whiteSpace=wrap;html=1;gradientColor=none;" vertex="1" parent="WIyWlLk6GJQsqaUBKTNV-1">
          <mxGeometry x="270" y="1430" width="120" height="60" as="geometry" />
        </mxCell>
        <mxCell id="kZs2vMbf8O2eaN0qB7Vc-10" value="REDCAR" style="ellipse;whiteSpace=wrap;html=1;rounded=0;" vertex="1" parent="WIyWlLk6GJQsqaUBKTNV-1">
          <mxGeometry x="270" y="1520" width="120" height="40" as="geometry" />
        </mxCell>
        <mxCell id="kZs2vMbf8O2eaN0qB7Vc-18" value="&lt;div&gt;(MWXY)&lt;/div&gt;&lt;div&gt;(MWXY1)&lt;/div&gt;&lt;div&gt;(MWDXY)更新&lt;/div&gt;" style="rounded=0;whiteSpace=wrap;html=1;gradientColor=none;" vertex="1" parent="WIyWlLk6GJQsqaUBKTNV-1">
          <mxGeometry x="270" y="200" width="120" height="60" as="geometry" />
        </mxCell>
        <mxCell id="kZs2vMbf8O2eaN0qB7Vc-21" value="" style="edgeStyle=orthogonalEdgeStyle;rounded=0;orthogonalLoop=1;jettySize=auto;html=1;" edge="1" parent="WIyWlLk6GJQsqaUBKTNV-1" source="kZs2vMbf8O2eaN0qB7Vc-19" target="kZs2vMbf8O2eaN0qB7Vc-20">
          <mxGeometry relative="1" as="geometry" />
        </mxCell>
        <mxCell id="kZs2vMbf8O2eaN0qB7Vc-19" value="移動方向決定" style="ellipse;whiteSpace=wrap;html=1;" vertex="1" parent="WIyWlLk6GJQsqaUBKTNV-1">
          <mxGeometry x="965" y="-170" width="120" height="40" as="geometry" />
        </mxCell>
        <mxCell id="kZs2vMbf8O2eaN0qB7Vc-23" value="" style="edgeStyle=orthogonalEdgeStyle;rounded=0;orthogonalLoop=1;jettySize=auto;html=1;" edge="1" parent="WIyWlLk6GJQsqaUBKTNV-1" source="kZs2vMbf8O2eaN0qB7Vc-20" target="kZs2vMbf8O2eaN0qB7Vc-22">
          <mxGeometry relative="1" as="geometry" />
        </mxCell>
        <mxCell id="kZs2vMbf8O2eaN0qB7Vc-20" value="&lt;div&gt;D=0&lt;/div&gt;&lt;div&gt;E=-1&lt;br&gt;&lt;/div&gt;" style="rounded=0;whiteSpace=wrap;html=1;gradientColor=none;" vertex="1" parent="WIyWlLk6GJQsqaUBKTNV-1">
          <mxGeometry x="965" y="-98" width="120" height="60" as="geometry" />
        </mxCell>
        <mxCell id="kZs2vMbf8O2eaN0qB7Vc-25" value="NO" style="edgeStyle=orthogonalEdgeStyle;rounded=0;orthogonalLoop=1;jettySize=auto;html=1;" edge="1" parent="WIyWlLk6GJQsqaUBKTNV-1" source="kZs2vMbf8O2eaN0qB7Vc-22" target="kZs2vMbf8O2eaN0qB7Vc-24">
          <mxGeometry relative="1" as="geometry" />
        </mxCell>
        <mxCell id="kZs2vMbf8O2eaN0qB7Vc-40" value="YES" style="edgeStyle=orthogonalEdgeStyle;rounded=0;orthogonalLoop=1;jettySize=auto;html=1;entryX=0.5;entryY=0;entryDx=0;entryDy=0;" edge="1" parent="WIyWlLk6GJQsqaUBKTNV-1" source="kZs2vMbf8O2eaN0qB7Vc-22" target="kZs2vMbf8O2eaN0qB7Vc-36">
          <mxGeometry relative="1" as="geometry">
            <mxPoint x="885" y="730" as="targetPoint" />
            <Array as="points">
              <mxPoint x="785" y="30" />
            </Array>
          </mxGeometry>
        </mxCell>
        <mxCell id="kZs2vMbf8O2eaN0qB7Vc-22" value="KEY=&quot;8&quot;" style="rhombus;whiteSpace=wrap;html=1;rounded=0;gradientColor=none;" vertex="1" parent="WIyWlLk6GJQsqaUBKTNV-1">
          <mxGeometry x="950" y="-5" width="150" height="70" as="geometry" />
        </mxCell>
        <mxCell id="kZs2vMbf8O2eaN0qB7Vc-27" value="" style="edgeStyle=orthogonalEdgeStyle;rounded=0;orthogonalLoop=1;jettySize=auto;html=1;" edge="1" parent="WIyWlLk6GJQsqaUBKTNV-1" source="kZs2vMbf8O2eaN0qB7Vc-24" target="kZs2vMbf8O2eaN0qB7Vc-26">
          <mxGeometry relative="1" as="geometry" />
        </mxCell>
        <mxCell id="kZs2vMbf8O2eaN0qB7Vc-24" value="&lt;div&gt;D=0&lt;/div&gt;&lt;div&gt;E=1&lt;br&gt;&lt;/div&gt;" style="rounded=0;whiteSpace=wrap;html=1;gradientColor=none;" vertex="1" parent="WIyWlLk6GJQsqaUBKTNV-1">
          <mxGeometry x="965" y="100" width="120" height="60" as="geometry" />
        </mxCell>
        <mxCell id="kZs2vMbf8O2eaN0qB7Vc-29" value="NO" style="edgeStyle=orthogonalEdgeStyle;rounded=0;orthogonalLoop=1;jettySize=auto;html=1;" edge="1" parent="WIyWlLk6GJQsqaUBKTNV-1" source="kZs2vMbf8O2eaN0qB7Vc-26" target="kZs2vMbf8O2eaN0qB7Vc-28">
          <mxGeometry relative="1" as="geometry" />
        </mxCell>
        <mxCell id="kZs2vMbf8O2eaN0qB7Vc-41" value="YES" style="edgeStyle=orthogonalEdgeStyle;rounded=0;orthogonalLoop=1;jettySize=auto;html=1;" edge="1" parent="WIyWlLk6GJQsqaUBKTNV-1" source="kZs2vMbf8O2eaN0qB7Vc-26">
          <mxGeometry relative="1" as="geometry">
            <mxPoint x="790" y="230" as="targetPoint" />
          </mxGeometry>
        </mxCell>
        <mxCell id="kZs2vMbf8O2eaN0qB7Vc-26" value="KEY=&quot;2&quot;" style="rhombus;whiteSpace=wrap;html=1;rounded=0;gradientColor=none;" vertex="1" parent="WIyWlLk6GJQsqaUBKTNV-1">
          <mxGeometry x="950" y="195" width="150" height="70" as="geometry" />
        </mxCell>
        <mxCell id="kZs2vMbf8O2eaN0qB7Vc-31" value="" style="edgeStyle=orthogonalEdgeStyle;rounded=0;orthogonalLoop=1;jettySize=auto;html=1;" edge="1" parent="WIyWlLk6GJQsqaUBKTNV-1" source="kZs2vMbf8O2eaN0qB7Vc-28" target="kZs2vMbf8O2eaN0qB7Vc-30">
          <mxGeometry relative="1" as="geometry" />
        </mxCell>
        <mxCell id="kZs2vMbf8O2eaN0qB7Vc-28" value="&lt;div&gt;D=-1&lt;/div&gt;&lt;div&gt;E=0&lt;br&gt;&lt;/div&gt;" style="rounded=0;whiteSpace=wrap;html=1;gradientColor=none;" vertex="1" parent="WIyWlLk6GJQsqaUBKTNV-1">
          <mxGeometry x="965" y="300" width="120" height="60" as="geometry" />
        </mxCell>
        <mxCell id="kZs2vMbf8O2eaN0qB7Vc-33" value="NO" style="edgeStyle=orthogonalEdgeStyle;rounded=0;orthogonalLoop=1;jettySize=auto;html=1;" edge="1" parent="WIyWlLk6GJQsqaUBKTNV-1" source="kZs2vMbf8O2eaN0qB7Vc-30" target="kZs2vMbf8O2eaN0qB7Vc-32">
          <mxGeometry relative="1" as="geometry" />
        </mxCell>
        <mxCell id="kZs2vMbf8O2eaN0qB7Vc-42" value="YES" style="edgeStyle=orthogonalEdgeStyle;rounded=0;orthogonalLoop=1;jettySize=auto;html=1;" edge="1" parent="WIyWlLk6GJQsqaUBKTNV-1" source="kZs2vMbf8O2eaN0qB7Vc-30">
          <mxGeometry relative="1" as="geometry">
            <mxPoint x="790" y="430" as="targetPoint" />
          </mxGeometry>
        </mxCell>
        <mxCell id="kZs2vMbf8O2eaN0qB7Vc-30" value="KEY=&quot;4&quot;" style="rhombus;whiteSpace=wrap;html=1;rounded=0;gradientColor=none;" vertex="1" parent="WIyWlLk6GJQsqaUBKTNV-1">
          <mxGeometry x="950" y="395" width="150" height="70" as="geometry" />
        </mxCell>
        <mxCell id="kZs2vMbf8O2eaN0qB7Vc-35" value="" style="edgeStyle=orthogonalEdgeStyle;rounded=0;orthogonalLoop=1;jettySize=auto;html=1;" edge="1" parent="WIyWlLk6GJQsqaUBKTNV-1" source="kZs2vMbf8O2eaN0qB7Vc-32" target="kZs2vMbf8O2eaN0qB7Vc-34">
          <mxGeometry relative="1" as="geometry" />
        </mxCell>
        <mxCell id="kZs2vMbf8O2eaN0qB7Vc-32" value="&lt;div&gt;D=1&lt;/div&gt;&lt;div&gt;E=0&lt;br&gt;&lt;/div&gt;" style="rounded=0;whiteSpace=wrap;html=1;gradientColor=none;" vertex="1" parent="WIyWlLk6GJQsqaUBKTNV-1">
          <mxGeometry x="965" y="500" width="120" height="60" as="geometry" />
        </mxCell>
        <mxCell id="kZs2vMbf8O2eaN0qB7Vc-53" value="NO" style="edgeStyle=orthogonalEdgeStyle;rounded=0;orthogonalLoop=1;jettySize=auto;html=1;" edge="1" parent="WIyWlLk6GJQsqaUBKTNV-1" source="kZs2vMbf8O2eaN0qB7Vc-34" target="kZs2vMbf8O2eaN0qB7Vc-48">
          <mxGeometry relative="1" as="geometry" />
        </mxCell>
        <mxCell id="kZs2vMbf8O2eaN0qB7Vc-58" value="YES" style="edgeStyle=orthogonalEdgeStyle;rounded=0;orthogonalLoop=1;jettySize=auto;html=1;" edge="1" parent="WIyWlLk6GJQsqaUBKTNV-1" source="kZs2vMbf8O2eaN0qB7Vc-34">
          <mxGeometry relative="1" as="geometry">
            <mxPoint x="790" y="635" as="targetPoint" />
          </mxGeometry>
        </mxCell>
        <mxCell id="kZs2vMbf8O2eaN0qB7Vc-34" value="KEY=&quot;6&quot;" style="rhombus;whiteSpace=wrap;html=1;rounded=0;gradientColor=none;" vertex="1" parent="WIyWlLk6GJQsqaUBKTNV-1">
          <mxGeometry x="950" y="600" width="150" height="70" as="geometry" />
        </mxCell>
        <mxCell id="kZs2vMbf8O2eaN0qB7Vc-45" value="" style="edgeStyle=orthogonalEdgeStyle;rounded=0;orthogonalLoop=1;jettySize=auto;html=1;exitX=0.5;exitY=1;exitDx=0;exitDy=0;" edge="1" parent="WIyWlLk6GJQsqaUBKTNV-1" source="kZs2vMbf8O2eaN0qB7Vc-36" target="kZs2vMbf8O2eaN0qB7Vc-44">
          <mxGeometry relative="1" as="geometry">
            <mxPoint x="815" y="970" as="sourcePoint" />
          </mxGeometry>
        </mxCell>
        <mxCell id="kZs2vMbf8O2eaN0qB7Vc-36" value="HL←(MWXY)" style="rounded=0;whiteSpace=wrap;html=1;gradientColor=none;" vertex="1" parent="WIyWlLk6GJQsqaUBKTNV-1">
          <mxGeometry x="725" y="710" width="120" height="60" as="geometry" />
        </mxCell>
        <mxCell id="kZs2vMbf8O2eaN0qB7Vc-47" value="" style="edgeStyle=orthogonalEdgeStyle;rounded=0;orthogonalLoop=1;jettySize=auto;html=1;" edge="1" parent="WIyWlLk6GJQsqaUBKTNV-1" source="kZs2vMbf8O2eaN0qB7Vc-44" target="kZs2vMbf8O2eaN0qB7Vc-46">
          <mxGeometry relative="1" as="geometry" />
        </mxCell>
        <mxCell id="kZs2vMbf8O2eaN0qB7Vc-44" value="MOVOK" style="shape=process;whiteSpace=wrap;html=1;backgroundOutline=1;gradientColor=none;" vertex="1" parent="WIyWlLk6GJQsqaUBKTNV-1">
          <mxGeometry x="725" y="820" width="120" height="60" as="geometry" />
        </mxCell>
        <mxCell id="kZs2vMbf8O2eaN0qB7Vc-76" value="NO" style="edgeStyle=orthogonalEdgeStyle;rounded=0;orthogonalLoop=1;jettySize=auto;html=1;" edge="1" parent="WIyWlLk6GJQsqaUBKTNV-1" source="kZs2vMbf8O2eaN0qB7Vc-46">
          <mxGeometry relative="1" as="geometry">
            <mxPoint x="1020" y="965" as="targetPoint" />
          </mxGeometry>
        </mxCell>
        <mxCell id="kZs2vMbf8O2eaN0qB7Vc-46" value="A&amp;gt;=2" style="rhombus;whiteSpace=wrap;html=1;rounded=0;gradientColor=none;" vertex="1" parent="WIyWlLk6GJQsqaUBKTNV-1">
          <mxGeometry x="710" y="930" width="150" height="70" as="geometry" />
        </mxCell>
        <mxCell id="kZs2vMbf8O2eaN0qB7Vc-52" value="" style="edgeStyle=orthogonalEdgeStyle;rounded=0;orthogonalLoop=1;jettySize=auto;html=1;" edge="1" parent="WIyWlLk6GJQsqaUBKTNV-1" source="kZs2vMbf8O2eaN0qB7Vc-48" target="kZs2vMbf8O2eaN0qB7Vc-51">
          <mxGeometry relative="1" as="geometry" />
        </mxCell>
        <mxCell id="kZs2vMbf8O2eaN0qB7Vc-48" value="&lt;div&gt;HL←(MWXY)&lt;/div&gt;&lt;div&gt;DE←(MXY1)&lt;br&gt;&lt;/div&gt;" style="rounded=0;whiteSpace=wrap;html=1;gradientColor=none;" vertex="1" parent="WIyWlLk6GJQsqaUBKTNV-1">
          <mxGeometry x="965" y="1040" width="120" height="60" as="geometry" />
        </mxCell>
        <mxCell id="kZs2vMbf8O2eaN0qB7Vc-55" value="" style="edgeStyle=orthogonalEdgeStyle;rounded=0;orthogonalLoop=1;jettySize=auto;html=1;" edge="1" parent="WIyWlLk6GJQsqaUBKTNV-1" source="kZs2vMbf8O2eaN0qB7Vc-51" target="kZs2vMbf8O2eaN0qB7Vc-54">
          <mxGeometry relative="1" as="geometry" />
        </mxCell>
        <mxCell id="kZs2vMbf8O2eaN0qB7Vc-51" value="MOVOK" style="shape=process;whiteSpace=wrap;html=1;backgroundOutline=1;gradientColor=none;" vertex="1" parent="WIyWlLk6GJQsqaUBKTNV-1">
          <mxGeometry x="965" y="1150" width="120" height="60" as="geometry" />
        </mxCell>
        <mxCell id="kZs2vMbf8O2eaN0qB7Vc-61" value="NO" style="edgeStyle=orthogonalEdgeStyle;rounded=0;orthogonalLoop=1;jettySize=auto;html=1;" edge="1" parent="WIyWlLk6GJQsqaUBKTNV-1" source="kZs2vMbf8O2eaN0qB7Vc-54" target="kZs2vMbf8O2eaN0qB7Vc-59">
          <mxGeometry relative="1" as="geometry" />
        </mxCell>
        <mxCell id="kZs2vMbf8O2eaN0qB7Vc-54" value="A&amp;gt;=2" style="rhombus;whiteSpace=wrap;html=1;rounded=0;gradientColor=none;" vertex="1" parent="WIyWlLk6GJQsqaUBKTNV-1">
          <mxGeometry x="950" y="1260" width="150" height="70" as="geometry" />
        </mxCell>
        <mxCell id="kZs2vMbf8O2eaN0qB7Vc-62" value="" style="edgeStyle=orthogonalEdgeStyle;rounded=0;orthogonalLoop=1;jettySize=auto;html=1;" edge="1" parent="WIyWlLk6GJQsqaUBKTNV-1" source="kZs2vMbf8O2eaN0qB7Vc-59" target="kZs2vMbf8O2eaN0qB7Vc-60">
          <mxGeometry relative="1" as="geometry" />
        </mxCell>
        <mxCell id="kZs2vMbf8O2eaN0qB7Vc-59" value="&lt;div&gt;HL←(MWXY)&lt;/div&gt;&lt;div&gt;DE←(PMXY1)&lt;br&gt;&lt;/div&gt;" style="rounded=0;whiteSpace=wrap;html=1;gradientColor=none;" vertex="1" parent="WIyWlLk6GJQsqaUBKTNV-1">
          <mxGeometry x="965" y="1380" width="120" height="60" as="geometry" />
        </mxCell>
        <mxCell id="kZs2vMbf8O2eaN0qB7Vc-64" value="" style="edgeStyle=orthogonalEdgeStyle;rounded=0;orthogonalLoop=1;jettySize=auto;html=1;" edge="1" parent="WIyWlLk6GJQsqaUBKTNV-1" source="kZs2vMbf8O2eaN0qB7Vc-60" target="kZs2vMbf8O2eaN0qB7Vc-63">
          <mxGeometry relative="1" as="geometry" />
        </mxCell>
        <mxCell id="kZs2vMbf8O2eaN0qB7Vc-60" value="MOVOK" style="shape=process;whiteSpace=wrap;html=1;backgroundOutline=1;gradientColor=none;" vertex="1" parent="WIyWlLk6GJQsqaUBKTNV-1">
          <mxGeometry x="965" y="1490" width="120" height="60" as="geometry" />
        </mxCell>
        <mxCell id="kZs2vMbf8O2eaN0qB7Vc-66" value="NO" style="edgeStyle=orthogonalEdgeStyle;rounded=0;orthogonalLoop=1;jettySize=auto;html=1;" edge="1" parent="WIyWlLk6GJQsqaUBKTNV-1" source="kZs2vMbf8O2eaN0qB7Vc-63" target="kZs2vMbf8O2eaN0qB7Vc-65">
          <mxGeometry relative="1" as="geometry" />
        </mxCell>
        <mxCell id="kZs2vMbf8O2eaN0qB7Vc-63" value="A&amp;gt;=2" style="rhombus;whiteSpace=wrap;html=1;rounded=0;gradientColor=none;" vertex="1" parent="WIyWlLk6GJQsqaUBKTNV-1">
          <mxGeometry x="950" y="1600" width="150" height="70" as="geometry" />
        </mxCell>
        <mxCell id="kZs2vMbf8O2eaN0qB7Vc-68" value="" style="edgeStyle=orthogonalEdgeStyle;rounded=0;orthogonalLoop=1;jettySize=auto;html=1;" edge="1" parent="WIyWlLk6GJQsqaUBKTNV-1" source="kZs2vMbf8O2eaN0qB7Vc-65" target="kZs2vMbf8O2eaN0qB7Vc-67">
          <mxGeometry relative="1" as="geometry" />
        </mxCell>
        <mxCell id="kZs2vMbf8O2eaN0qB7Vc-65" value="&lt;div&gt;HL←(MWXY)&lt;/div&gt;&lt;div&gt;D←NEG(D)&lt;/div&gt;&lt;div&gt;E←NEG(E)&lt;br&gt;&lt;/div&gt;" style="rounded=0;whiteSpace=wrap;html=1;gradientColor=none;" vertex="1" parent="WIyWlLk6GJQsqaUBKTNV-1">
          <mxGeometry x="965" y="1720" width="120" height="60" as="geometry" />
        </mxCell>
        <mxCell id="kZs2vMbf8O2eaN0qB7Vc-70" value="" style="edgeStyle=orthogonalEdgeStyle;rounded=0;orthogonalLoop=1;jettySize=auto;html=1;" edge="1" parent="WIyWlLk6GJQsqaUBKTNV-1" source="kZs2vMbf8O2eaN0qB7Vc-67" target="kZs2vMbf8O2eaN0qB7Vc-69">
          <mxGeometry relative="1" as="geometry" />
        </mxCell>
        <mxCell id="kZs2vMbf8O2eaN0qB7Vc-67" value="MOVOK" style="shape=process;whiteSpace=wrap;html=1;backgroundOutline=1;gradientColor=none;" vertex="1" parent="WIyWlLk6GJQsqaUBKTNV-1">
          <mxGeometry x="965" y="1830" width="120" height="60" as="geometry" />
        </mxCell>
        <mxCell id="kZs2vMbf8O2eaN0qB7Vc-72" value="NO" style="edgeStyle=orthogonalEdgeStyle;rounded=0;orthogonalLoop=1;jettySize=auto;html=1;" edge="1" parent="WIyWlLk6GJQsqaUBKTNV-1" source="kZs2vMbf8O2eaN0qB7Vc-69" target="kZs2vMbf8O2eaN0qB7Vc-71">
          <mxGeometry relative="1" as="geometry" />
        </mxCell>
        <mxCell id="kZs2vMbf8O2eaN0qB7Vc-69" value="A&amp;gt;=2" style="rhombus;whiteSpace=wrap;html=1;rounded=0;gradientColor=none;" vertex="1" parent="WIyWlLk6GJQsqaUBKTNV-1">
          <mxGeometry x="950" y="1940" width="150" height="70" as="geometry" />
        </mxCell>
        <mxCell id="kZs2vMbf8O2eaN0qB7Vc-73" style="edgeStyle=orthogonalEdgeStyle;rounded=0;orthogonalLoop=1;jettySize=auto;html=1;exitX=1;exitY=0.5;exitDx=0;exitDy=0;entryX=1;entryY=0.5;entryDx=0;entryDy=0;" edge="1" parent="WIyWlLk6GJQsqaUBKTNV-1" source="kZs2vMbf8O2eaN0qB7Vc-71" target="kZs2vMbf8O2eaN0qB7Vc-65">
          <mxGeometry relative="1" as="geometry">
            <Array as="points">
              <mxPoint x="1200" y="2090" />
              <mxPoint x="1200" y="1750" />
            </Array>
          </mxGeometry>
        </mxCell>
        <mxCell id="kZs2vMbf8O2eaN0qB7Vc-71" value="&lt;div&gt;DE←(MXY1)&lt;br&gt;&lt;/div&gt;" style="rounded=0;whiteSpace=wrap;html=1;gradientColor=none;" vertex="1" parent="WIyWlLk6GJQsqaUBKTNV-1">
          <mxGeometry x="965" y="2060" width="120" height="60" as="geometry" />
        </mxCell>
      </root>
    </mxGraphModel>
  </diagram>
</mxfile>
